<svg id="svg" xmlns="http://www.w3.org/2000/svg" xmlns:xlink="http://www.w3.org/1999/xlink" width="400" height="304.6875" viewBox="0, 0, 400,304.6875"><g id="svgg"><path id="path0" d="M144.360 0.343 C 128.563 2.314,117.023 11.765,114.793 24.557 C 114.480 26.348,114.328 29.264,114.325 33.500 C 114.317 45.005,111.649 50.995,104.968 54.513 C 100.833 56.690,104.465 56.513,60.061 56.703 C 20.194 56.874,19.957 56.879,17.642 57.532 C 15.101 58.249,10.976 60.194,10.976 60.675 C 10.976 60.840,10.803 60.976,10.591 60.976 C 10.380 60.976,9.866 61.286,9.448 61.664 C 9.031 62.043,8.313 62.595,7.853 62.890 C 5.605 64.331,2.472 69.138,0.953 73.476 L 0.152 75.762 0.066 165.549 C -0.026 261.190,-0.083 257.393,1.507 261.487 C 4.119 268.215,9.505 273.166,16.921 275.655 L 19.055 276.371 50.237 276.457 C 71.236 276.515,81.805 276.440,82.602 276.225 C 85.937 275.327,86.999 270.814,84.519 268.077 C 82.988 266.388,84.505 266.463,52.284 266.463 L 22.211 266.463 19.932 265.698 C 18.678 265.277,17.282 264.699,16.829 264.412 C 15.603 263.636,12.713 261.280,12.987 261.280 C 13.118 261.280,12.938 261.014,12.588 260.687 C 11.673 259.835,10.425 257.128,10.065 255.218 C 9.863 254.143,9.756 232.838,9.756 193.556 L 9.756 133.537 47.409 133.537 C 68.117 133.537,85.061 133.639,85.060 133.765 C 85.059 133.891,84.643 135.015,84.135 136.262 C 83.626 137.510,83.167 138.745,83.115 139.006 C 83.063 139.268,82.851 139.893,82.645 140.396 C 76.641 155.056,74.445 181.535,77.601 201.220 C 79.224 211.343,84.766 229.974,86.579 231.402 C 86.685 231.486,86.959 232.035,87.186 232.622 C 88.404 235.761,93.651 245.381,96.363 249.445 C 97.879 251.717,98.782 252.925,101.397 256.177 C 101.635 256.473,101.829 256.796,101.829 256.896 C 101.829 257.080,105.186 261.257,106.700 262.957 C 110.640 267.383,121.929 278.049,122.674 278.049 C 122.780 278.049,123.106 278.257,123.399 278.511 C 126.920 281.562,129.567 283.537,130.136 283.537 C 130.302 283.537,130.483 283.654,130.539 283.796 C 130.653 284.089,135.328 287.151,136.738 287.857 C 137.736 288.357,139.474 289.306,143.864 291.745 C 146.242 293.067,149.596 294.706,150.152 294.817 C 150.229 294.833,151.054 295.182,151.984 295.593 C 152.915 296.005,153.850 296.341,154.064 296.341 C 154.277 296.341,154.588 296.479,154.756 296.646 C 155.244 297.134,165.009 300.230,169.665 301.372 C 187.117 305.654,207.265 306.098,224.848 302.587 C 226.189 302.319,227.630 302.034,228.049 301.953 C 232.826 301.027,245.737 296.841,249.010 295.157 C 249.645 294.830,250.974 294.305,251.298 294.253 C 251.537 294.214,253.525 293.172,255.640 291.976 C 256.311 291.597,258.232 290.558,259.909 289.667 C 264.415 287.272,266.768 285.879,266.768 285.607 C 266.768 285.475,266.906 285.366,267.074 285.366 C 267.415 285.366,272.869 281.661,275.000 279.982 C 284.028 272.868,290.358 266.686,296.951 258.542 C 297.538 257.817,298.070 257.089,298.134 256.923 C 298.266 256.581,298.981 255.667,299.771 254.832 C 300.065 254.522,300.305 254.131,300.305 253.963 C 300.305 253.796,300.425 253.659,300.571 253.659 C 300.930 253.659,305.198 247.245,306.579 244.631 C 307.189 243.476,307.791 242.393,307.918 242.226 C 308.195 241.858,310.428 237.663,312.137 234.299 C 313.624 231.370,315.588 226.829,315.368 226.829 C 315.281 226.829,315.421 226.452,315.680 225.991 C 317.882 222.067,321.797 206.536,323.001 196.951 C 324.905 181.789,323.874 164.359,320.258 150.599 C 319.665 148.341,319.045 145.945,318.880 145.274 C 318.716 144.604,318.496 143.849,318.391 143.598 C 318.287 143.346,318.152 142.886,318.091 142.575 C 318.031 142.264,317.297 140.182,316.460 137.949 C 315.624 135.716,314.939 133.810,314.939 133.713 C 314.939 133.616,331.885 133.537,352.596 133.537 L 390.253 133.537 390.172 194.588 L 390.091 255.640 389.412 257.302 C 387.501 261.972,383.276 265.340,378.327 266.140 C 377.064 266.345,364.266 266.459,342.149 266.465 C 318.617 266.471,307.927 266.573,307.927 266.791 C 307.927 266.966,307.801 267.032,307.648 266.937 C 307.494 266.842,306.941 267.124,306.417 267.565 C 303.678 269.869,303.966 274.169,306.970 275.841 L 308.237 276.545 344.591 276.454 C 378.852 276.368,381.042 276.330,382.622 275.805 C 384.559 275.161,388.495 273.483,388.720 273.206 C 388.803 273.102,389.255 272.820,389.723 272.579 C 393.161 270.806,397.664 264.545,399.289 259.279 C 399.825 257.542,399.848 253.827,399.848 166.768 L 399.848 76.067 399.110 73.780 C 396.497 65.677,390.456 59.817,382.361 57.533 C 380.042 56.878,379.829 56.874,339.939 56.710 C 304.235 56.564,299.697 56.492,298.476 56.058 C 293.448 54.270,290.332 51.528,288.128 46.951 C 286.317 43.191,286.218 42.577,285.969 33.537 C 285.685 23.252,285.355 21.825,281.927 16.083 C 277.405 8.508,267.538 2.511,256.448 0.597 C 252.692 -0.051,149.397 -0.285,144.360 0.343 M254.268 10.139 C 254.688 10.255,256.083 10.620,257.369 10.949 C 258.655 11.279,260.370 11.847,261.180 12.213 C 264.251 13.598,265.878 14.453,266.662 15.091 C 266.868 15.259,268.039 16.207,269.265 17.198 C 271.788 19.237,274.941 23.507,275.523 25.671 C 275.626 26.057,275.808 29.870,275.927 34.146 C 276.145 41.953,276.304 43.339,277.476 47.561 C 278.181 50.103,280.178 54.430,281.106 55.426 C 281.437 55.782,281.707 56.181,281.707 56.313 C 281.708 56.612,284.500 59.545,286.105 60.934 C 288.082 62.644,291.502 64.656,293.140 65.073 C 293.308 65.115,293.801 65.297,294.235 65.476 C 297.793 66.943,300.368 67.031,340.256 67.053 C 384.217 67.077,380.985 66.810,385.583 70.787 C 390.236 74.810,390.244 74.864,390.244 101.726 L 390.244 123.780 350.076 123.780 L 309.909 123.779 308.232 120.515 C 306.716 117.566,301.067 108.678,299.982 107.538 C 299.740 107.284,299.242 106.684,298.875 106.206 C 295.351 101.616,290.907 96.375,288.572 94.055 C 285.916 91.416,277.081 83.554,276.268 83.105 C 275.990 82.952,275.694 82.737,275.610 82.628 C 275.094 81.958,266.637 76.220,266.165 76.220 C 265.994 76.220,265.854 76.092,265.854 75.935 C 265.854 75.779,265.545 75.555,265.168 75.437 C 264.790 75.319,264.413 75.123,264.329 75.001 C 264.245 74.880,263.216 74.258,262.043 73.620 C 260.869 72.982,259.840 72.370,259.756 72.260 C 259.492 71.914,254.878 69.460,254.878 69.665 C 254.878 69.773,254.662 69.645,254.399 69.382 C 254.135 69.118,253.719 68.902,253.474 68.902 C 253.228 68.902,252.723 68.706,252.352 68.466 C 251.465 67.893,242.473 64.293,239.939 63.496 C 236.558 62.432,233.770 61.622,231.707 61.103 C 230.617 60.829,229.588 60.505,229.421 60.383 C 229.149 60.186,227.137 59.708,225.000 59.333 C 224.581 59.259,223.618 59.056,222.861 58.882 C 217.678 57.691,203.075 56.545,197.005 56.854 C 189.254 57.247,187.406 57.394,183.103 57.961 C 178.369 58.585,171.635 59.876,170.579 60.362 C 170.244 60.517,167.706 61.281,164.939 62.061 C 162.172 62.841,159.771 63.563,159.604 63.666 C 159.436 63.770,159.080 63.888,158.813 63.930 C 158.337 64.004,151.795 66.594,148.476 68.021 C 145.944 69.110,140.542 71.914,140.073 72.383 C 139.846 72.611,138.454 73.447,136.979 74.243 C 133.183 76.290,125.106 81.776,122.732 83.918 C 122.407 84.211,122.030 84.451,121.894 84.451 C 121.758 84.451,121.646 84.657,121.646 84.909 C 121.646 85.160,121.490 85.366,121.299 85.366 C 120.863 85.366,117.723 88.094,114.334 91.417 C 112.906 92.817,111.529 94.120,111.274 94.313 C 110.424 94.958,103.901 102.556,101.943 105.183 C 100.880 106.608,99.866 107.946,99.689 108.155 C 99.511 108.365,99.475 108.541,99.607 108.546 C 99.739 108.551,99.606 108.696,99.310 108.868 C 98.774 109.180,95.278 114.175,94.897 115.174 C 94.786 115.464,94.477 115.937,94.210 116.225 C 93.942 116.512,92.906 118.328,91.908 120.259 L 90.091 123.771 49.924 123.776 L 9.756 123.780 9.756 101.844 C 9.756 75.733,9.743 75.837,13.472 71.794 C 18.137 66.736,14.846 67.075,59.407 67.064 C 80.241 67.059,98.058 66.930,99.238 66.777 C 102.191 66.393,103.198 66.203,104.100 65.860 C 104.528 65.697,104.878 65.627,104.878 65.704 C 104.878 65.782,105.667 65.556,106.631 65.202 C 109.038 64.319,112.817 62.156,112.591 61.791 C 112.489 61.626,112.561 61.587,112.750 61.704 C 113.156 61.955,118.223 56.941,118.902 55.617 C 119.153 55.127,119.445 54.657,119.549 54.573 C 120.035 54.185,122.032 49.672,122.728 47.390 C 123.934 43.436,124.110 41.883,124.342 33.139 C 124.511 26.790,124.652 24.910,124.971 24.713 C 125.198 24.573,125.296 24.318,125.190 24.145 C 125.083 23.973,125.111 23.787,125.251 23.730 C 125.391 23.674,125.951 22.788,126.494 21.762 C 129.517 16.052,136.913 11.585,145.579 10.236 C 148.528 9.777,252.636 9.684,254.268 10.139 M40.760 18.897 C 38.867 19.147,35.061 20.610,35.061 21.089 C 35.061 21.248,34.932 21.298,34.775 21.201 C 34.617 21.103,34.377 21.198,34.241 21.411 C 34.105 21.624,33.720 21.948,33.384 22.131 C 31.804 22.993,29.317 27.235,28.699 30.122 C 28.257 32.190,28.241 43.565,28.679 44.721 C 29.901 47.946,34.133 48.826,36.801 46.409 C 38.280 45.069,38.361 44.685,38.400 38.821 C 38.448 31.560,38.538 31.223,40.851 29.649 L 41.858 28.963 61.763 28.963 C 73.216 28.963,81.983 29.083,82.409 29.245 C 84.914 30.198,85.363 31.628,85.377 38.689 C 85.389 44.943,85.434 45.131,87.303 46.613 C 89.924 48.691,93.487 47.989,94.980 45.101 C 95.638 43.830,95.617 31.957,94.954 29.409 C 93.591 24.175,89.519 20.307,83.994 19.000 C 82.735 18.702,42.956 18.607,40.760 18.897 M214.787 67.959 C 220.785 68.776,226.096 69.854,230.793 71.210 C 232.889 71.816,234.741 72.346,234.909 72.388 C 236.513 72.796,237.070 73.002,237.232 73.247 C 237.335 73.406,237.768 73.556,238.193 73.582 C 238.618 73.607,238.909 73.720,238.840 73.832 C 238.721 74.025,240.315 74.492,240.738 74.387 C 240.848 74.360,241.022 74.457,241.124 74.603 C 241.227 74.749,242.271 75.259,243.445 75.737 C 249.025 78.010,257.942 82.606,261.324 84.952 C 266.262 88.378,270.267 91.350,272.670 93.371 C 273.317 93.915,274.071 94.488,274.347 94.645 C 275.338 95.209,278.909 98.749,284.365 104.573 C 288.060 108.519,288.490 109.012,289.219 110.148 C 289.626 110.782,290.195 111.549,290.483 111.851 C 290.771 112.154,291.143 112.622,291.311 112.893 C 291.479 113.163,292.545 114.706,293.680 116.322 C 294.815 117.939,296.503 120.552,297.432 122.130 C 298.361 123.709,299.273 125.000,299.459 125.000 C 299.645 125.000,299.706 125.090,299.596 125.201 C 299.486 125.311,299.519 125.551,299.669 125.734 C 299.982 126.114,303.963 134.004,303.963 134.244 C 303.963 134.330,304.234 135.031,304.564 135.802 C 304.894 136.572,305.141 137.236,305.112 137.275 C 305.082 137.315,305.285 137.759,305.563 138.262 C 306.248 139.506,308.255 145.424,309.440 149.695 C 309.975 151.623,310.492 153.407,310.589 153.659 C 310.685 153.910,310.784 154.253,310.808 154.421 C 311.086 156.352,311.392 157.622,311.580 157.622 C 311.804 157.622,312.701 162.952,313.479 168.902 C 313.990 172.805,313.990 188.769,313.480 193.140 C 312.947 197.704,311.925 203.671,311.542 204.449 C 311.370 204.801,311.206 205.555,311.178 206.126 C 311.151 206.697,311.027 207.240,310.903 207.333 C 310.780 207.425,310.634 207.911,310.579 208.413 C 310.524 208.916,310.392 209.467,310.286 209.639 C 310.180 209.811,310.021 210.285,309.934 210.692 C 309.785 211.388,309.236 213.502,309.029 214.177 C 308.977 214.345,308.777 214.868,308.583 215.340 C 308.390 215.812,308.232 216.327,308.232 216.485 C 308.232 217.569,303.720 228.581,301.432 233.079 C 299.515 236.851,299.448 236.970,299.154 237.165 C 299.003 237.265,297.958 238.904,296.832 240.807 C 293.903 245.760,291.364 249.326,287.599 253.775 C 286.622 254.928,285.686 256.071,285.518 256.314 C 285.089 256.936,275.709 266.189,274.255 267.424 C 273.594 267.986,272.731 268.754,272.336 269.131 C 271.941 269.508,271.562 269.817,271.493 269.817 C 271.376 269.817,266.353 273.580,265.164 274.558 C 264.869 274.801,264.551 275.000,264.457 275.000 C 264.182 275.000,261.443 276.923,261.331 277.195 C 261.274 277.331,261.133 277.384,261.017 277.312 C 260.900 277.240,259.780 277.874,258.528 278.722 C 252.487 282.806,237.962 289.032,229.878 291.001 C 229.627 291.062,229.421 291.133,229.421 291.158 C 229.421 291.183,229.117 291.261,228.745 291.330 C 227.415 291.579,227.285 291.619,227.130 291.822 C 226.689 292.403,214.577 294.348,208.537 294.807 C 197.633 295.637,174.166 293.657,172.867 291.798 C 172.744 291.622,168.732 290.467,167.011 290.113 C 166.794 290.068,166.410 289.948,166.159 289.847 C 165.907 289.746,164.820 289.382,163.743 289.039 C 157.593 287.075,143.222 280.526,142.592 279.400 C 142.458 279.160,142.212 278.963,142.046 278.963 C 141.880 278.963,141.372 278.707,140.918 278.393 C 140.463 278.079,138.514 276.797,136.585 275.544 C 130.700 271.720,126.655 268.400,120.496 262.339 C 117.254 259.148,114.529 256.609,114.440 256.698 C 114.351 256.787,114.324 256.707,114.380 256.521 C 114.436 256.334,113.841 255.442,113.057 254.539 C 109.854 250.845,105.007 244.281,104.246 242.607 C 104.037 242.146,103.750 241.768,103.610 241.768 C 103.469 241.768,103.354 241.621,103.354 241.440 C 103.354 241.260,102.798 240.197,102.118 239.078 C 101.439 237.958,100.719 236.768,100.518 236.433 C 100.317 236.098,100.050 235.747,99.925 235.654 C 99.800 235.560,98.674 233.314,97.424 230.662 C 96.173 228.011,95.075 225.766,94.983 225.674 C 94.892 225.583,94.817 225.329,94.817 225.111 C 94.817 224.892,94.489 223.989,94.087 223.104 C 93.223 221.198,92.820 220.010,91.321 214.939 C 90.701 212.843,90.115 210.922,90.020 210.671 C 89.925 210.419,89.809 210.025,89.762 209.795 C 89.472 208.368,88.952 206.181,88.809 205.793 C 88.717 205.541,88.609 205.061,88.571 204.726 C 88.368 202.975,87.685 199.504,87.491 199.238 C 86.831 198.337,85.977 188.093,85.979 181.098 C 85.981 173.807,86.853 163.508,87.543 162.622 C 87.686 162.437,87.838 161.581,87.881 160.719 C 87.923 159.856,88.052 159.150,88.167 159.149 C 88.282 159.147,88.371 158.906,88.364 158.613 C 88.358 158.319,88.788 156.364,89.321 154.268 C 89.854 152.172,90.335 150.248,90.389 149.992 C 91.414 145.152,98.483 127.998,100.132 126.349 C 100.342 126.139,100.699 125.509,100.926 124.950 C 101.152 124.390,101.426 123.864,101.533 123.780 C 101.641 123.697,102.122 122.942,102.601 122.104 C 103.807 119.993,106.845 115.442,108.452 113.338 C 109.189 112.374,109.720 111.585,109.632 111.585 C 109.545 111.585,109.745 111.277,110.077 110.899 C 110.410 110.522,111.468 109.315,112.429 108.217 C 115.410 104.812,119.920 99.947,121.010 98.960 C 121.582 98.442,122.405 97.627,122.839 97.149 C 123.668 96.236,125.233 94.970,131.250 90.349 C 133.262 88.804,135.149 87.325,135.442 87.062 C 135.736 86.800,136.010 86.601,136.052 86.620 C 136.262 86.716,138.415 85.268,138.415 85.031 C 138.415 84.880,138.595 84.756,138.814 84.756 C 139.034 84.756,139.515 84.476,139.882 84.134 C 140.249 83.793,140.549 83.596,140.549 83.698 C 140.549 83.800,140.926 83.622,141.387 83.302 C 144.311 81.276,159.450 74.085,160.791 74.085 C 160.955 74.085,161.646 73.821,162.328 73.499 C 164.164 72.629,169.966 70.866,173.864 69.992 C 179.445 68.740,184.133 68.030,191.921 67.257 C 195.461 66.905,210.416 67.365,214.787 67.959 M193.750 95.105 C 190.685 95.409,187.488 95.771,186.890 95.880 C 186.639 95.926,185.404 96.133,184.146 96.340 C 182.889 96.547,181.723 96.821,181.555 96.950 C 181.387 97.079,179.755 97.556,177.927 98.010 C 172.235 99.424,170.156 100.174,162.805 103.462 C 159.411 104.981,153.570 108.277,152.658 109.188 C 152.413 109.434,151.303 110.237,150.191 110.973 C 149.080 111.709,148.171 112.422,148.171 112.558 C 148.171 112.694,148.014 112.805,147.823 112.805 C 146.807 112.805,136.336 122.651,133.882 125.915 C 133.440 126.502,132.760 127.325,132.370 127.744 C 131.412 128.774,127.560 134.612,125.733 137.805 C 124.917 139.230,124.163 140.465,124.058 140.549 C 123.658 140.866,122.898 142.614,123.081 142.797 C 123.186 142.902,123.122 142.988,122.937 142.988 C 122.634 142.988,122.067 144.194,122.237 144.478 C 122.276 144.543,122.177 144.680,122.017 144.783 C 121.718 144.975,118.637 152.466,118.503 153.330 C 118.461 153.594,118.345 153.948,118.244 154.116 C 117.930 154.636,115.920 162.820,115.435 165.549 C 112.752 180.669,114.565 200.223,119.759 212.179 C 120.018 212.775,120.261 213.425,120.298 213.623 C 120.448 214.410,123.587 220.732,123.828 220.732 C 123.970 220.732,124.057 220.835,124.023 220.960 C 123.956 221.203,124.956 223.217,125.271 223.476 C 125.374 223.561,125.783 224.247,126.182 225.001 C 127.328 227.170,132.025 234.059,133.296 235.435 C 133.931 236.124,134.451 236.750,134.451 236.827 C 134.451 237.142,143.287 245.899,145.122 247.402 C 147.219 249.120,153.688 253.558,156.250 255.036 C 157.088 255.520,157.843 256.012,157.927 256.130 C 158.224 256.546,164.837 259.700,168.293 261.073 C 183.960 267.297,202.703 268.588,220.122 264.642 C 220.709 264.510,221.978 264.179,222.942 263.908 C 223.906 263.637,225.452 263.210,226.376 262.960 C 228.478 262.392,232.644 260.785,235.769 259.337 C 237.081 258.729,238.271 258.232,238.414 258.232 C 238.556 258.232,239.095 257.877,239.611 257.442 C 240.127 257.008,240.549 256.739,240.549 256.843 C 240.549 257.041,241.640 256.520,242.206 256.052 C 242.385 255.905,244.314 254.661,246.494 253.288 C 248.674 251.916,250.503 250.683,250.559 250.549 C 250.615 250.415,250.847 250.305,251.075 250.305 C 251.303 250.305,251.703 250.000,251.964 249.627 C 252.225 249.255,252.439 249.058,252.439 249.191 C 252.439 250.348,267.611 235.224,268.262 233.417 C 268.329 233.231,268.475 233.011,268.587 232.927 C 268.778 232.784,270.812 229.846,271.503 228.715 C 271.676 228.433,272.346 227.378,272.991 226.372 C 276.184 221.395,276.147 221.463,278.518 216.311 C 289.530 192.379,287.808 158.612,274.530 138.110 C 273.824 137.020,272.483 134.893,271.551 133.384 C 269.641 130.292,268.293 128.490,265.054 124.695 C 263.564 122.950,257.821 117.183,256.243 115.848 C 253.774 113.759,250.888 111.560,249.286 110.548 C 248.307 109.930,247.218 109.155,246.866 108.828 C 246.514 108.500,246.109 108.232,245.966 108.232 C 245.823 108.232,245.416 107.961,245.060 107.630 C 243.464 106.142,230.113 100.074,226.564 99.222 C 224.470 98.719,218.938 97.172,218.445 96.951 C 215.468 95.617,200.137 94.470,193.750 95.105 M208.994 105.640 C 214.521 106.269,224.069 108.529,225.800 109.618 C 226.795 110.243,230.182 111.569,230.188 111.335 C 230.190 111.221,230.293 111.265,230.416 111.433 C 230.539 111.601,232.530 112.674,234.841 113.818 C 243.766 118.240,255.244 127.674,259.252 133.883 C 259.562 134.363,259.961 134.666,260.138 134.556 C 260.315 134.447,260.375 134.495,260.271 134.663 C 260.167 134.831,260.352 135.258,260.681 135.612 C 261.011 135.966,261.280 136.335,261.280 136.433 C 261.280 136.531,261.563 136.914,261.909 137.284 C 265.541 141.175,273.672 159.376,273.855 164.024 C 273.865 164.276,273.975 164.550,274.101 164.634 C 275.290 165.429,276.359 181.999,275.636 188.415 C 275.169 192.549,274.436 196.867,274.091 197.511 C 273.941 197.790,273.325 199.802,272.720 201.982 C 270.278 210.791,265.754 220.130,261.298 225.560 C 260.702 226.287,260.259 227.041,260.315 227.236 C 260.371 227.432,260.316 227.490,260.192 227.367 C 260.069 227.243,259.647 227.586,259.255 228.129 C 256.884 231.412,252.585 235.863,248.933 238.817 C 247.256 240.173,245.654 241.538,245.374 241.850 C 245.093 242.163,244.750 242.402,244.612 242.382 C 244.473 242.363,243.835 242.793,243.194 243.339 C 238.421 247.402,223.308 253.939,216.006 255.098 C 215.503 255.178,215.023 255.351,214.939 255.484 C 213.841 257.220,188.175 257.234,185.149 255.500 C 184.433 255.090,180.721 254.276,180.419 254.464 C 180.289 254.544,180.183 254.464,180.183 254.286 C 180.183 254.109,179.979 253.963,179.729 253.963 C 179.263 253.963,174.037 252.367,172.415 251.729 C 167.854 249.935,157.206 244.118,156.612 243.096 C 156.476 242.862,156.236 242.750,156.079 242.847 C 155.921 242.944,155.793 242.875,155.793 242.693 C 155.793 242.512,155.450 242.233,155.030 242.073 C 154.611 241.914,154.268 241.661,154.268 241.512 C 154.268 241.363,153.722 240.863,153.055 240.401 C 149.962 238.257,143.779 232.160,141.006 228.519 C 140.000 227.197,138.394 225.083,137.438 223.819 C 132.393 217.154,126.659 203.075,125.441 194.360 C 125.324 193.521,125.123 192.698,124.994 192.530 C 123.853 191.043,123.844 172.063,124.983 169.360 C 125.125 169.024,125.541 167.241,125.907 165.396 C 127.881 155.471,132.505 144.874,138.160 137.316 C 138.774 136.495,139.261 135.755,139.241 135.671 C 139.221 135.587,139.541 135.162,139.953 134.727 C 140.364 134.291,141.524 132.919,142.530 131.678 C 144.031 129.826,147.427 126.482,151.952 122.399 C 155.951 118.791,164.310 113.806,170.884 111.109 C 172.058 110.628,173.101 110.116,173.202 109.973 C 173.458 109.611,180.724 107.491,184.420 106.699 C 191.435 105.197,201.352 104.770,208.994 105.640 " stroke="none" fill="#ffffff" fill-rule="evenodd"></path><path id="path1" d="" stroke="none" fill="#888484" fill-rule="evenodd"></path><path id="path2" d="" stroke="none" fill="#888484" fill-rule="evenodd"></path><path id="path3" d="" stroke="none" fill="#888484" fill-rule="evenodd"></path><path id="path4" d="" stroke="none" fill="#888484" fill-rule="evenodd"></path></g></svg>