<?xml version="1.0" standalone="no"?>
<!DOCTYPE svg PUBLIC "-//W3C//DTD SVG 20010904//EN"
 "http://www.w3.org/TR/2001/REC-SVG-20010904/DTD/svg10.dtd">
<svg version="1.0" xmlns="http://www.w3.org/2000/svg"
 width="492.000000pt" height="512.000000pt" viewBox="0 0 492.000000 512.000000"
 preserveAspectRatio="xMidYMid meet">
<metadata>
Created by potrace 1.15, written by Peter Selinger 2001-2017
</metadata>
<g transform="translate(0.000000,512.000000) scale(0.100000,-0.100000)"
fill="#ffffff" stroke="none">
<path d="M2030 4970 l0 -150 -712 0 c-583 1 -718 3 -738 14 -14 8 -43 40 -65
72 -50 72 -107 104 -198 111 -121 10 -224 -43 -285 -145 -24 -42 -27 -57 -27
-137 0 -73 4 -98 22 -131 36 -67 70 -101 135 -133 138 -70 294 -21 374 116 15
24 34 48 44 53 22 12 1040 14 1040 3 0 -5 -56 -36 -124 -71 -607 -310 -1002
-830 -1140 -1501 -14 -68 -29 -128 -33 -132 -5 -5 -49 -9 -98 -11 l-90 -3 -3
-264 c-2 -205 1 -266 10 -273 7 -4 124 -8 260 -8 211 0 249 2 262 16 14 13 16
51 16 259 0 134 -3 250 -6 259 -5 13 -23 16 -91 16 l-85 0 7 53 c12 87 63 273
105 381 108 276 266 513 476 716 256 247 524 400 872 498 l72 20 0 -144 0
-144 393 0 c292 0 396 3 405 12 8 8 12 57 12 155 0 79 3 143 8 143 4 0 52 -11
107 -24 285 -70 544 -192 770 -365 84 -64 266 -242 338 -331 132 -163 244
-359 317 -555 34 -88 88 -291 104 -382 l5 -33 -72 0 c-43 0 -78 -5 -85 -12 -9
-9 -12 -80 -12 -259 0 -212 2 -250 16 -263 13 -14 51 -16 263 -16 199 0 251 3
260 14 8 9 11 90 9 272 l-3 259 -102 3 c-97 3 -103 4 -108 25 -58 275 -112
440 -205 634 -116 242 -237 409 -431 598 -173 168 -324 276 -554 397 l-130 68
487 0 c288 0 497 -4 512 -10 15 -5 35 -28 50 -58 34 -68 93 -118 162 -138 194
-56 374 83 374 289 0 79 -31 147 -92 203 -63 58 -119 77 -216 73 -102 -5 -156
-36 -222 -129 l-46 -65 -757 -3 -757 -2 0 155 0 155 -400 0 -400 0 0 -150z
m634 -26 c12 -31 7 -449 -6 -462 -9 -9 -76 -12 -240 -12 l-228 0 0 245 0 245
234 0 c204 0 235 -2 240 -16z m2027 -107 c40 -27 66 -89 55 -132 -4 -15 -22
-43 -41 -62 -27 -27 -41 -33 -74 -33 -60 0 -96 22 -115 70 -22 55 -8 107 39
149 44 38 88 41 136 8z m-4350 -2 c60 -32 85 -106 54 -165 -32 -62 -129 -80
-184 -35 -114 97 -3 268 130 200z m169 -2158 c0 -127 -4 -132 -114 -132 -56 0
-90 5 -98 13 -18 18 -18 173 1 195 11 14 33 17 112 17 l99 0 0 -93z m4200 -6
c0 -79 -3 -101 -17 -112 -22 -19 -177 -19 -195 -1 -18 18 -18 173 1 195 11 14
33 17 112 17 l99 0 0 -99z"/>
<path d="M2292 4148 c-5 -7 -169 -341 -365 -743 -195 -401 -425 -875 -512
-1053 -138 -282 -157 -326 -147 -346 6 -13 41 -44 79 -70 136 -91 282 -236
367 -365 91 -137 189 -370 210 -497 7 -40 7 -41 -25 -48 -17 -3 -44 -6 -60 -6
l-29 0 0 -130 0 -130 -80 0 -80 0 0 -380 0 -380 790 0 790 0 0 380 0 380 -80
0 -80 0 0 129 0 128 -60 7 c-50 6 -60 10 -60 26 0 37 87 284 130 370 102 204
214 336 418 489 76 57 122 98 122 110 0 9 -21 60 -46 112 -70 143 -743 1545
-856 1784 -55 116 -107 218 -115 228 -14 15 -36 17 -158 17 -102 0 -145 -4
-153 -12z m51 -1486 c-10 -7 -40 -27 -68 -45 -56 -36 -109 -108 -126 -170 -16
-61 -7 -173 19 -224 73 -142 254 -206 400 -143 73 32 147 114 168 188 44 149
-20 298 -156 367 -40 20 -50 31 -55 57 -9 49 -1 1188 8 1191 6 2 614 -1232
837 -1701 l59 -122 -72 -57 c-263 -208 -424 -450 -527 -793 -51 -168 -53 -174
-80 -181 -14 -4 -156 -7 -316 -8 -265 -1 -294 1 -312 17 -12 10 -28 52 -42
107 -44 174 -118 352 -205 485 -71 110 -165 209 -369 387 l-49 43 449 921 449
921 3 -613 c2 -579 2 -615 -15 -627z m144 -163 c43 -16 82 -59 94 -101 21 -81
-49 -168 -136 -168 -107 0 -172 105 -123 199 35 68 99 95 165 70z m432 -1653
c6 -7 8 -27 5 -45 l-6 -31 -469 0 -469 0 0 45 0 45 464 0 c378 0 466 -3 475
-14z m161 -471 l0 -215 -630 0 -630 0 0 215 0 215 630 0 630 0 0 -215z"/>
</g>
</svg>
