<svg id="svg" xmlns="http://www.w3.org/2000/svg" xmlns:xlink="http://www.w3.org/1999/xlink" width="400" height="541.7769376181475" viewBox="0, 0, 400,541.7769376181475"><g id="svgg"><path id="path0" d="M39.545 0.985 C 20.611 4.405,5.402 19.337,1.257 38.576 C 0.180 43.572,0.179 498.200,1.256 503.196 C 5.302 521.972,19.059 535.870,38.185 540.506 C 41.673 541.351,352.690 541.837,358.601 541.006 C 379.069 538.130,395.552 522.140,399.065 501.753 C 399.560 498.882,399.616 470.806,399.528 269.376 L 399.428 40.265 398.572 37.088 C 393.334 17.658,379.058 4.259,360.067 0.948 C 355.265 0.110,44.189 0.147,39.545 0.985 M202.305 19.930 C 202.909 20.287,203.403 20.797,203.403 21.065 C 203.403 21.332,203.573 21.550,203.781 21.550 C 204.536 21.550,204.151 23.946,203.194 25.201 C 200.795 28.346,195.331 25.212,197.139 21.727 C 198.349 19.395,200.268 18.727,202.305 19.930 M364.839 270.888 L 364.839 501.323 200.000 501.323 L 35.161 501.323 35.161 270.888 L 35.161 40.454 200.000 40.454 L 364.839 40.454 364.839 270.888 " stroke="none" fill="#3b436b" fill-rule="evenodd"></path><path id="path1" d="M198.559 20.809 C 197.499 21.796,197.424 24.179,198.423 25.083 C 199.277 25.856,202.004 25.916,202.619 25.176 C 204.951 22.365,201.209 18.340,198.559 20.809 " stroke="none" fill="#d6d7da" fill-rule="evenodd"></path><path id="path2" d="M199.622 19.806 C 199.622 19.886,200.123 20.026,200.736 20.116 C 201.349 20.205,201.764 20.140,201.659 19.969 C 201.472 19.666,199.622 19.518,199.622 19.806 M197.502 21.707 C 197.390 22.002,197.358 22.725,197.433 23.314 C 197.544 24.189,197.603 24.090,197.755 22.779 C 197.946 21.126,197.862 20.770,197.502 21.707 M203.447 22.748 C 203.422 23.095,203.305 23.690,203.185 24.071 C 202.979 24.728,202.990 24.729,203.400 24.090 C 203.637 23.720,203.755 23.124,203.661 22.767 C 203.507 22.182,203.486 22.180,203.447 22.748 M198.263 25.236 C 198.816 25.890,199.342 26.072,200.531 26.023 L 202.079 25.960 200.567 25.806 C 199.735 25.722,198.715 25.368,198.299 25.019 C 197.548 24.391,197.548 24.392,198.263 25.236 " stroke="none" fill="#8c94a4" fill-rule="evenodd"></path><path id="path3" d="" stroke="none" fill="#70748c" fill-rule="evenodd"></path><path id="path4" d="M198.299 20.260 L 197.164 21.235 198.311 20.480 C 198.941 20.065,199.962 19.651,200.579 19.560 L 201.701 19.395 200.567 19.340 C 199.836 19.305,199.030 19.631,198.299 20.260 M203.592 23.026 C 203.592 23.838,203.719 24.424,203.875 24.327 C 204.031 24.231,204.159 23.567,204.159 22.851 C 204.159 22.136,204.031 21.550,203.875 21.550 C 203.719 21.550,203.592 22.214,203.592 23.026 M202.819 25.357 C 202.682 25.580,202.204 25.909,201.757 26.089 C 201.203 26.313,201.137 26.425,201.548 26.441 C 201.880 26.454,202.459 26.125,202.836 25.709 C 203.212 25.293,203.418 24.953,203.295 24.953 C 203.171 24.953,202.957 25.135,202.819 25.357 " stroke="none" fill="#545c78" fill-rule="evenodd"></path></g></svg>