<?xml version="1.0" standalone="no"?>
<!DOCTYPE svg PUBLIC "-//W3C//DTD SVG 20010904//EN"
 "http://www.w3.org/TR/2001/REC-SVG-20010904/DTD/svg10.dtd">
<svg version="1.0" xmlns="http://www.w3.org/2000/svg"
 width="159.000000pt" height="165.000000pt" viewBox="0 0 159.000000 165.000000"
 preserveAspectRatio="xMidYMid meet">
<metadata>
Created by potrace 1.15, written by Peter Selinger 2001-2017
</metadata>
<g transform="translate(0.000000,165.000000) scale(0.100000,-0.100000)"
fill="#3e466e" stroke="none">
<path d="M865 1588 c-113 -90 -243 -259 -378 -490 -75 -126 -74 -140 3 -211
65 -61 140 -95 226 -104 37 -4 54 -2 60 8 5 8 55 110 112 227 121 251 162 366
169 474 7 88 -6 130 -43 147 -46 21 -71 12 -149 -51z"/>
<path d="M1124 1421 c-5 -26 -8 -53 -6 -59 2 -7 31 -26 65 -44 129 -69 227
-190 262 -323 20 -79 20 -264 -1 -358 -47 -215 -215 -414 -409 -486 -102 -38
-161 -28 -189 34 -7 16 -16 77 -20 133 -7 116 -29 182 -76 227 -33 31 -49 29
-99 -16 l-33 -31 30 -31 c43 -44 52 -76 61 -202 8 -124 20 -154 79 -207 80
-72 199 -74 347 -4 205 97 362 292 426 531 29 107 32 337 6 435 -49 182 -161
323 -324 408 -44 23 -87 42 -95 42 -9 0 -18 -18 -24 -49z"/>
<path d="M1134 1136 c-68 -30 -97 -116 -55 -167 16 -20 28 -24 79 -24 51 0 65
4 87 25 28 26 55 77 55 105 0 9 -13 30 -29 46 -33 33 -83 38 -137 15z"/>
<path d="M361 847 c-14 -37 -31 -136 -31 -183 0 -42 -1 -43 -42 -54 -102 -25
-164 -73 -198 -152 -20 -47 -22 -61 -15 -162 7 -124 2 -145 -46 -201 -41 -46
-32 -65 37 -83 249 -65 537 222 459 457 -9 29 -15 53 -14 55 2 1 24 14 49 28
25 15 67 49 95 78 57 58 58 57 -43 91 -58 19 -134 65 -209 125 l-33 26 -9 -25z"/>
<path d="M1190 811 c-109 -58 -94 -191 21 -191 80 0 139 53 139 126 0 39 -4
47 -32 64 -41 25 -83 25 -128 1z"/>
<path d="M1040 500 c-20 -5 -49 -24 -67 -44 -39 -43 -44 -90 -12 -130 17 -22
28 -26 72 -26 61 0 109 25 132 69 29 57 14 104 -40 127 -38 15 -36 15 -85 4z"/>
</g>
</svg>
