<?xml version="1.0" standalone="no"?>
<!DOCTYPE svg PUBLIC "-//W3C//DTD SVG 20010904//EN"
 "http://www.w3.org/TR/2001/REC-SVG-20010904/DTD/svg10.dtd">
<svg version="1.0" xmlns="http://www.w3.org/2000/svg"
 width="222.000000pt" height="221.000000pt" viewBox="0 0 222.000000 221.000000"
 preserveAspectRatio="xMidYMid meet">
<metadata>
Created by potrace 1.15, written by Peter Selinger 2001-2017
</metadata>
<g transform="translate(0.000000,221.000000) scale(0.100000,-0.100000)"
fill="#3E466E" stroke="none">
<path d="M136 2195 c-21 -7 -52 -26 -68 -42 -63 -58 -60 -6 -60 -1048 0 -1052
-3 -992 65 -1052 58 -51 86 -55 363 -51 l251 3 40 27 c25 17 49 45 64 75 l24
48 3 920 c2 662 -1 935 -9 975 -14 67 -72 131 -134 149 -61 17 -490 14 -539
-4z m342 -1831 c34 -39 30 -95 -9 -128 -41 -35 -83 -34 -120 3 -46 47 -38 114
19 146 36 20 81 11 110 -21z"/>
<path d="M1445 1891 c-25 -12 -114 -93 -237 -218 l-198 -199 0 -567 c0 -312 3
-567 8 -567 4 0 222 215 484 478 492 492 517 521 518 597 0 80 -16 104 -194
284 -106 107 -186 181 -211 192 -51 24 -119 24 -170 0z"/>
<path d="M1760 794 c-39 -16 -802 -772 -794 -786 3 -4 251 -8 552 -8 513 0
550 2 588 19 49 22 88 70 103 126 15 53 14 467 0 520 -15 52 -82 119 -134 134
-60 17 -272 13 -315 -5z"/>
</g>
</svg>
