<?xml version="1.0" standalone="no"?>
<!DOCTYPE svg PUBLIC "-//W3C//DTD SVG 20010904//EN"
 "http://www.w3.org/TR/2001/REC-SVG-20010904/DTD/svg10.dtd">
<svg version="1.0" xmlns="http://www.w3.org/2000/svg"
 width="341.000000pt" height="416.000000pt" viewBox="0 0 341.000000 416.000000"
 preserveAspectRatio="xMidYMid meet">
<metadata>
Created by potrace 1.15, written by Peter Selinger 2001-2017
</metadata>
<g transform="translate(0.000000,416.000000) scale(0.100000,-0.100000)"
fill="#3e466e" stroke="none">
<path d="M2043 4018 c-190 -188 -189 -184 -69 -306 47 -49 86 -91 86 -95 0
-20 -182 -168 -320 -260 -255 -169 -553 -281 -780 -293 -154 -8 -179 -13 -195
-37 -21 -33 -675 -2082 -675 -2115 0 -16 8 -37 19 -46 35 -32 79 -30 211 12
486 152 1930 617 1952 628 33 17 34 23 48 185 32 373 194 719 502 1070 l48 54
82 -82 c90 -89 120 -103 164 -80 45 24 281 268 289 299 4 15 4 37 0 50 -8 25
-1054 1081 -1119 1129 -70 52 -80 47 -243 -113z m1094 -1105 l-57 -58 -488
488 -487 488 60 54 60 54 485 -485 485 -484 -58 -57z m-1607 -573 c64 -34 91
-139 54 -207 -46 -86 -198 -97 -249 -19 -57 87 -21 209 70 236 31 9 99 4 125
-10z"/>
<path d="M2610 739 c-118 -71 -221 -137 -228 -147 -22 -27 -8 -81 42 -165 l46
-78 -47 -20 c-145 -62 -394 -128 -563 -149 -108 -13 -341 -13 -450 0 -247 30
-468 96 -689 205 -173 87 -290 163 -469 308 -108 87 -138 107 -165 107 -68 0
-101 -53 -71 -116 20 -41 181 -179 312 -267 248 -166 520 -287 802 -356 180
-45 285 -56 505 -55 273 1 425 28 762 133 89 28 164 51 167 51 2 0 19 -25 36
-55 39 -68 69 -90 111 -81 34 7 410 227 452 265 50 45 42 71 -102 310 -71 119
-135 222 -142 229 -7 6 -31 12 -53 12 -34 -1 -76 -22 -256 -131z m380 -327 c0
-4 -59 -42 -130 -84 -92 -55 -131 -73 -138 -65 -17 22 -140 232 -144 244 -2 7
56 48 127 91 l130 78 78 -129 c42 -70 77 -131 77 -135z"/>
</g>
</svg>
